<svg width="13" height="17" viewBox="0 0 13 17" fill="none" xmlns="http://www.w3.org/2000/svg">
<path d="M5.25016 12.4535C3.73719 12.261 2.3543 11.4996 1.38255 10.3241C0.410798 9.14857 -0.0768845 7.64715 0.0186213 6.12498C0.114127 4.60281 0.785654 3.17412 1.89671 2.12929C3.00778 1.08446 4.47499 0.501892 6.00016 0.500002C7.52719 0.498865 8.9972 1.08001 10.1107 2.12501C11.2241 3.17001 11.8972 4.60025 11.9928 6.12428C12.0885 7.64831 11.5994 9.15146 10.6253 10.3274C9.65119 11.5034 8.26535 12.2638 6.75016 12.4535V14.75H5.25016V12.4535ZM6.00016 11C7.19363 11 8.33822 10.5259 9.18214 9.68198C10.0261 8.83807 10.5002 7.69348 10.5002 6.5C10.5002 5.30653 10.0261 4.16193 9.18214 3.31802C8.33822 2.47411 7.19363 2 6.00016 2C4.80668 2 3.66209 2.47411 2.81818 3.31802C1.97426 4.16193 1.50016 5.30653 1.50016 6.5C1.50016 7.69348 1.97426 8.83807 2.81818 9.68198C3.66209 10.5259 4.80668 11 6.00016 11ZM0.750156 15.5H11.2502V17H0.750156V15.5Z" fill="#FFC20E"/>
</svg>
