<svg width="16" height="16" viewBox="0 0 16 16" fill="none" xmlns="http://www.w3.org/2000/svg">
<path d="M3.0136 3.95702L0.928931 1.87302L1.87226 0.929688L15.0716 14.1297L14.1283 15.0724L11.9216 12.8657C10.7491 13.6094 9.38875 14.0032 8.00026 14.001C4.4056 14.001 1.41493 11.4144 0.787598 8.00102C1.07428 6.44817 1.85535 5.02962 3.01426 3.95702H3.0136ZM9.83826 10.7824L8.86226 9.80635C8.48896 9.98496 8.06945 10.0434 7.66155 9.97354C7.25366 9.90371 6.87747 9.70906 6.58484 9.41644C6.29222 9.12382 6.09758 8.74763 6.02774 8.33973C5.95791 7.93184 6.01632 7.51232 6.19493 7.13902L5.21893 6.16302C4.79474 6.80401 4.60511 7.57191 4.68215 8.33668C4.75919 9.10145 5.09816 9.8161 5.64168 10.3596C6.18519 10.9031 6.89983 11.2421 7.6646 11.3191C8.42938 11.3962 9.19727 11.2065 9.83826 10.7824V10.7824ZM5.31626 2.50769C6.1476 2.18102 7.0536 2.00102 8.00026 2.00102C11.5949 2.00102 14.5856 4.58769 15.2129 8.00102C15.0087 9.11149 14.5495 10.1594 13.8716 11.0624L11.2983 8.48902C11.3747 7.9741 11.3295 7.44843 11.1662 6.95412C11.0029 6.45982 10.7262 6.01063 10.3581 5.64253C9.98999 5.27444 9.5408 4.99767 9.04649 4.8344C8.55219 4.67114 8.02652 4.62591 7.5116 4.70235L5.31626 2.50835V2.50769Z" fill="#191919"/>
</svg>
