<svg width="24" height="28" viewBox="0 0 24 28" fill="none" xmlns="http://www.w3.org/2000/svg">
<path d="M10 16.5V26.5H0C0 23.8478 1.05357 21.3043 2.92893 19.4289C4.8043 17.5536 7.34784 16.5 10 16.5ZM17.5 25.875L13.8263 27.8063L14.5275 23.7163L11.5562 20.8188L15.6637 20.2213L17.5 16.5L19.3375 20.2213L23.4437 20.8188L20.4725 23.7163L21.1725 27.8063L17.5 25.875ZM10 15.25C5.85625 15.25 2.5 11.8938 2.5 7.75C2.5 3.60625 5.85625 0.25 10 0.25C14.1438 0.25 17.5 3.60625 17.5 7.75C17.5 11.8938 14.1438 15.25 10 15.25Z" fill="#191919"/>
</svg>
