<svg xmlns="http://www.w3.org/2000/svg" width="180.398" height="50.463" viewBox="0 0 180.398 50.463">
  <g id="Group_5" data-name="Group 5" transform="translate(-2898.003 -620.75)">
    <g id="Group_2" data-name="Group 2" transform="translate(2898.009 614.186)">
      <path id="Lodre" d="M27.2,0H3.182V-34.31h6.867V-6.867H27.2ZM54.192-13.04a13.8,13.8,0,0,1-1.029,5.347,13.377,13.377,0,0,1-2.8,4.283A13.1,13.1,0,0,1,46.213-.562,12.611,12.611,0,0,1,41.1.479,12.552,12.552,0,0,1,36.02-.562a13.238,13.238,0,0,1-4.163-2.847,13.275,13.275,0,0,1-2.811-4.283,13.8,13.8,0,0,1-1.029-5.347,14.013,14.013,0,0,1,1.029-5.407,13.243,13.243,0,0,1,2.811-4.295,13.074,13.074,0,0,1,4.163-2.835A12.678,12.678,0,0,1,41.1-26.605a13.418,13.418,0,0,1,5.108.969,12.343,12.343,0,0,1,4.151,2.751,13.036,13.036,0,0,1,2.8,4.283A14.49,14.49,0,0,1,54.192-13.04Zm-6.58,0A7.606,7.606,0,0,0,47.1-15.9a6.791,6.791,0,0,0-1.4-2.2,6.05,6.05,0,0,0-2.07-1.412A6.531,6.531,0,0,0,41.1-20a6.531,6.531,0,0,0-2.524.49A5.928,5.928,0,0,0,36.523-18.1a6.735,6.735,0,0,0-1.376,2.2,7.767,7.767,0,0,0-.5,2.859,7.4,7.4,0,0,0,.5,2.751,6.907,6.907,0,0,0,1.376,2.2A6.436,6.436,0,0,0,38.58-6.615a6.028,6.028,0,0,0,2.524.538,6.4,6.4,0,0,0,2.524-.5A6.282,6.282,0,0,0,45.7-7.991a6.625,6.625,0,0,0,1.4-2.2A7.632,7.632,0,0,0,47.612-13.04ZM82.568,0H80.989L78.453-3.517A21.015,21.015,0,0,1,76.479-1.95,14.6,14.6,0,0,1,74.29-.682a13.432,13.432,0,0,1-2.357.849A9.8,9.8,0,0,1,69.48.479,12.806,12.806,0,0,1,64.4-.538a12.913,12.913,0,0,1-4.163-2.823,13.275,13.275,0,0,1-2.811-4.283,13.924,13.924,0,0,1-1.029-5.4,13.95,13.95,0,0,1,1.029-5.383,13.383,13.383,0,0,1,2.811-4.307A12.979,12.979,0,0,1,64.4-25.577a12.678,12.678,0,0,1,5.084-1.029,11.575,11.575,0,0,1,1.782.144A9.279,9.279,0,0,1,73.057-26a7.433,7.433,0,0,1,1.639.849,4.976,4.976,0,0,1,1.292,1.292V-35.817h6.58Zm-6.58-13.04a6.788,6.788,0,0,0-.514-2.6,7.46,7.46,0,0,0-1.4-2.225A6.96,6.96,0,0,0,72-19.416,5.615,5.615,0,0,0,69.48-20a6.674,6.674,0,0,0-2.524.479A5.945,5.945,0,0,0,64.9-18.148a6.44,6.44,0,0,0-1.376,2.189,8,8,0,0,0-.5,2.919,7.208,7.208,0,0,0,.5,2.68A7.2,7.2,0,0,0,64.9-8.135a6.418,6.418,0,0,0,2.058,1.507,5.918,5.918,0,0,0,2.524.55A5.615,5.615,0,0,0,72-6.663a6.96,6.96,0,0,0,2.07-1.555,7.46,7.46,0,0,0,1.4-2.225A6.788,6.788,0,0,0,75.988-13.04ZM94.076,0H87.544V-25.625h1.579l2.153,3.039A11.406,11.406,0,0,1,94.866-24.8a11.44,11.44,0,0,1,4.163-.778h5.766v6.508H99.029a4.943,4.943,0,0,0-1.938.383,4.892,4.892,0,0,0-1.579,1.053,4.892,4.892,0,0,0-1.053,1.579,4.943,4.943,0,0,0-.383,1.938Zm23.471-6.269a3.729,3.729,0,0,0,.766.156q.383.036.766.036a6.43,6.43,0,0,0,1.842-.263,6.659,6.659,0,0,0,1.663-.754,6.194,6.194,0,0,0,1.388-1.2,6.287,6.287,0,0,0,.993-1.567l4.785,4.809a12.882,12.882,0,0,1-2.094,2.321A13.209,13.209,0,0,1,125.1-.981,12.793,12.793,0,0,1,122.2.108a13.119,13.119,0,0,1-3.122.371,12.938,12.938,0,0,1-5.084-1,12.847,12.847,0,0,1-4.163-2.8A13.136,13.136,0,0,1,107.02-7.6a14.051,14.051,0,0,1-1.029-5.443,14.514,14.514,0,0,1,1.029-5.551,12.778,12.778,0,0,1,2.811-4.283,12.719,12.719,0,0,1,4.163-2.751,13.213,13.213,0,0,1,5.084-.981,12.874,12.874,0,0,1,3.134.383,13.162,13.162,0,0,1,2.907,1.1,13.239,13.239,0,0,1,2.572,1.759,12.991,12.991,0,0,1,2.105,2.333Zm3.35-13.47a3.762,3.762,0,0,0-.9-.215,8.572,8.572,0,0,0-.921-.048,6.531,6.531,0,0,0-2.524.49,6.007,6.007,0,0,0-2.058,1.4,6.6,6.6,0,0,0-1.376,2.189,7.837,7.837,0,0,0-.5,2.883q0,.359.036.813t.12.921q.084.467.2.9a3.339,3.339,0,0,0,.311.766Z" transform="translate(43.46 48)" fill="#2b1606"/>
      <path id="Path_9" data-name="Path 9" d="M1491.644,526.535l2.6,3.2a3.366,3.366,0,0,1-.486,4.721l-.2.16A16.6,16.6,0,0,1,1481.7,539.6h0a16.706,16.706,0,0,1-16.657-16.657v-30.61h3.74a3.752,3.752,0,0,1,3.741,3.741v.365l.115-.076v12.514a9.111,9.111,0,0,0-.115,1.443v12.624a9.136,9.136,0,0,0,.115,1.442v.544h.1a9.211,9.211,0,0,0,8.957,7.189h0a9.1,9.1,0,0,0,4.744-1.33l-.017-.021Z" transform="translate(-1465.053 -485.771)" fill="#2b1606"/>
      <path id="Path_10" data-name="Path 10" d="M1503.07,534.185a16.78,16.78,0,0,1,16.4,13.228h3.708v.015a3.753,3.753,0,0,1,3.408,3.725v3.741h-30.428v-3.741a3.755,3.755,0,0,1,3.057-3.677v-.063h12.206a9.07,9.07,0,0,0-15.654-1.826v-9.731A16.7,16.7,0,0,1,1503.07,534.185Z" transform="translate(-1486.302 -514.726)" fill="#f26900"/>
      <path id="TM" d="M.16-5.6v.824H1.872V0H2.9V-4.776H4.624V-5.6ZM8.832-.064l1.6-3.848L10.776,0H11.8l-.528-5.6H10.2L8.488-1.48,6.768-5.6H5.7L5.176,0H6.2l.336-3.912,1.6,3.848Z" transform="translate(168.592 21.282)" fill="#2b1606"/>
      <path id="MAINMARKET" d="M3.612-.056l1.4-3.367L5.313,0h.9L5.747-4.9H4.809L3.311-1.3,1.806-4.9H.868L.413,0h.9L1.6-3.423,3-.056ZM7.6,0l.357-.959h2.156L10.486,0H11.4L9.5-4.9H8.568L6.678,0ZM9.856-1.687H8.211l.826-2.3ZM12.985-4.9h-.9V0h.9ZM17.57,0h.672V-4.9h-.9v3.283L14.924-4.9h-.679V0h.9V-3.3Zm4.914-.056,1.4-3.367L24.185,0h.9l-.462-4.9h-.938L22.183-1.3,20.678-4.9H19.74L19.285,0h.9l.294-3.423,1.4,3.367ZM26.474,0l.357-.959h2.156L29.358,0h.917l-1.9-4.9H27.44L25.55,0Zm2.254-1.687H27.083l.826-2.3Zm3.122-.826V-4.158h1.078a.759.759,0,0,1,.756.826.742.742,0,0,1-.756.819Zm2.744-.812A1.489,1.489,0,0,0,33.068-4.9H30.954V0h.9V-1.8h.826c.056.56.406,1.876,1.561,1.876a1.369,1.369,0,0,0,.98-.378L34.9-.917a.755.755,0,0,1-.539.217c-.525,0-.777-.623-.868-1.148A1.446,1.446,0,0,0,34.594-3.325Zm2.121,1.113.847,1.323a1.64,1.64,0,0,0,1.365.966,1.5,1.5,0,0,0,.9-.28c-.112-.217-.217-.413-.322-.63a.723.723,0,0,1-.434.147c-.287,0-.392-.133-.728-.581l-.77-1.162,1.666-2.359V-4.9H38.3L36.715-2.576V-4.9h-.9V0h.9ZM43.554,0V-.714H41.265v-1.33H43.26v-.714H41.265V-4.179h2.289V-4.9H40.369V0Zm.483-4.9v.721h1.5V0h.9V-4.179h1.512V-4.9Z" transform="translate(103.993 56.95)" fill="#f26900"/>
    </g>
  </g>
</svg>
