<svg xmlns="http://www.w3.org/2000/svg" width="181.592" height="61" viewBox="0 0 181.592 61">
  <g id="Group_5" data-name="Group 5" transform="translate(-2898.01 -614.186)">
    <g id="Group_4" data-name="Group 4" transform="translate(406.956 137.686)">
      <g id="Group_3" data-name="Group 3" transform="translate(2491.053 476.5)">
        <g id="Group_2" data-name="Group 2" transform="translate(0 0)">
          <g id="Group_1" data-name="Group 1">
            <text id="Lodre" transform="translate(43.46 48)" fill="#2b1606" font-size="49" font-family="Righteous-Regular, Righteous"><tspan x="0" y="0">Lodre</tspan></text>
            <path id="Path_9" data-name="Path 9" d="M1491.644,526.535l2.6,3.2a3.366,3.366,0,0,1-.486,4.721l-.2.16a16.6,16.6,0,0,1-11.854,4.986h0a16.706,16.706,0,0,1-16.657-16.657V492.335h3.74a3.752,3.752,0,0,1,3.741,3.741v.365l.115-.076v12.514a9.122,9.122,0,0,0-.115,1.443v12.624a9.126,9.126,0,0,0,.115,1.443v.543h.1a9.211,9.211,0,0,0,8.957,7.189h0a9.1,9.1,0,0,0,4.744-1.33l-.017-.021Z" transform="translate(-1465.053 -485.771)" fill="#2b1606"/>
            <path id="Path_10" data-name="Path 10" d="M1503.07,534.185a16.779,16.779,0,0,1,16.4,13.227h3.708v.015a3.753,3.753,0,0,1,3.408,3.725v3.741h-30.428v-3.741a3.755,3.755,0,0,1,3.057-3.677v-.063h12.206a9.07,9.07,0,0,0-15.654-1.826v-9.731A16.7,16.7,0,0,1,1503.07,534.185Z" transform="translate(-1486.302 -514.726)" fill="#f26900"/>
            <text id="TM" transform="translate(168.592 21.282)" fill="#2b1606" font-size="8" font-family="FilsonPro-Medium, Filson Pro" font-weight="500"><tspan x="0" y="0">TM</tspan></text>
            <text id="MAINMARKET" transform="translate(103.993 56.95)" fill="#f26900" font-size="7" font-family="FilsonPro-Medium, Filson Pro" font-weight="500"><tspan x="0" y="0">MAINMARKET</tspan></text>
          </g>
        </g>
      </g>
    </g>
  </g>
</svg>
