<svg width="26" height="24" viewBox="0 0 26 24" fill="none" xmlns="http://www.w3.org/2000/svg">
<path d="M15.5 0.75V23.25H1.75C1.41848 23.25 1.10054 23.1183 0.866116 22.8839C0.631696 22.6495 0.5 22.3315 0.5 22V15.125C1.3288 15.125 2.12366 14.7958 2.70971 14.2097C3.29576 13.6237 3.625 12.8288 3.625 12C3.625 11.1712 3.29576 10.3763 2.70971 9.79029C2.12366 9.20424 1.3288 8.875 0.5 8.875V2C0.5 1.66848 0.631696 1.35054 0.866116 1.11612C1.10054 0.881696 1.41848 0.75 1.75 0.75H15.5ZM18 0.75H24.25C24.5815 0.75 24.8995 0.881696 25.1339 1.11612C25.3683 1.35054 25.5 1.66848 25.5 2V8.875C24.6712 8.875 23.8763 9.20424 23.2903 9.79029C22.7042 10.3763 22.375 11.1712 22.375 12C22.375 12.8288 22.7042 13.6237 23.2903 14.2097C23.8763 14.7958 24.6712 15.125 25.5 15.125V22C25.5 22.3315 25.3683 22.6495 25.1339 22.8839C24.8995 23.1183 24.5815 23.25 24.25 23.25H18V0.75Z" fill="#191919"/>
</svg>
